<?xml version="1.0" standalone="no"?>
<!DOCTYPE svg PUBLIC "-//W3C//DTD SVG 20010904//EN"
 "http://www.w3.org/TR/2001/REC-SVG-20010904/DTD/svg10.dtd">
<svg version="1.0" xmlns="http://www.w3.org/2000/svg"
 width="700.000000pt" height="274.000000pt" viewBox="0 0 700.000000 274.000000"
 preserveAspectRatio="xMidYMid meet">

<g transform="translate(0.000000,274.000000) scale(0.100000,-0.100000)"
fill="#000000" stroke="none">
<path d="M2860 2450 c0 -100 -4 -160 -10 -160 -5 0 -32 16 -59 35 l-49 35 -17
-26 c-9 -14 -15 -27 -13 -28 2 -2 36 -27 76 -55 l72 -53 0 -102 c0 -57 -3
-164 -7 -239 l-6 -137 -224 0 -223 0 0 -265 0 -265 223 -1 c452 -2 1280 -2
1536 -1 l264 2 -6 93 c-23 343 -182 607 -456 758 l-61 34 0 242 0 243 -340 0
-340 0 0 -325 0 -325 -145 0 -145 0 0 79 0 80 58 54 c31 30 68 64 82 75 l25
21 -22 22 -21 22 -59 -48 -58 -48 -3 86 -3 86 43 38 c121 108 120 105 98 131
l-19 23 -51 -46 c-28 -25 -55 -45 -60 -45 -6 0 -10 37 -10 85 l0 85 -35 0 -35
0 0 -160z m960 -154 l0 -185 -72 25 c-94 32 -280 64 -374 64 l-74 0 0 140 0
140 260 0 260 0 0 -184z m-242 -206 c53 -11 129 -30 167 -43 l70 -24 3 -375 2
-375 -37 -7 c-21 -3 -75 -6 -120 -6 l-83 0 0 325 0 325 -140 0 -140 0 0 106 0
107 91 -6 c49 -4 134 -16 187 -27z m402 -155 c198 -132 328 -354 355 -607 l7
-68 -221 0 -221 0 0 360 c0 198 3 360 6 360 4 0 37 -20 74 -45z m-762 -387
l-3 -283 -140 0 -140 0 -3 283 -2 282 145 0 145 0 -2 -282z m272 25 c0 -142 3
-268 6 -280 6 -23 5 -23 -95 -23 l-101 0 0 280 0 280 95 0 95 0 0 -257z m-640
-123 l0 -190 -185 0 -185 0 0 190 0 190 185 0 185 0 0 -190z"/>
<path d="M4324 960 c-109 -16 -206 -86 -254 -185 -36 -74 -41 -226 -10 -308
30 -79 108 -157 187 -187 85 -32 203 -31 275 3 52 24 108 68 108 85 0 5 -20
23 -44 40 l-43 31 -23 -24 c-101 -107 -292 -53 -350 100 -7 17 -12 61 -12 98
-1 56 4 78 28 125 64 124 218 160 330 77 19 -14 23 -13 63 16 l42 32 -22 23
c-54 58 -168 88 -275 74z"/>
<path d="M1529 945 c-203 -65 -298 -301 -200 -499 35 -71 85 -121 160 -158 41
-20 60 -23 166 -23 104 1 129 4 185 26 l65 26 3 153 c3 196 7 190 -135 190
l-103 0 0 -26 c0 -52 15 -64 80 -64 l60 0 0 -91 0 -90 -37 -16 c-25 -11 -67
-17 -124 -17 -78 -1 -90 2 -135 29 -37 24 -56 44 -79 90 -26 51 -30 69 -30
139 0 71 4 88 29 133 16 29 46 64 69 80 37 26 48 28 136 28 81 0 103 -4 140
-23 24 -13 47 -20 50 -15 3 4 19 22 34 39 l29 32 -66 32 c-57 28 -79 33 -159
36 -63 3 -107 -1 -138 -11z"/>
<path d="M4732 950 c-31 -13 -46 -55 -30 -88 10 -21 21 -28 52 -30 46 -4 76
19 76 59 0 26 -22 59 -40 59 -5 0 -14 2 -22 4 -7 3 -23 1 -36 -4z"/>
<path d="M5000 795 l0 -65 -50 0 c-48 0 -50 -1 -50 -27 0 -41 13 -55 56 -62
l39 -6 5 -150 c5 -161 13 -186 60 -204 46 -17 78 -21 125 -15 46 7 46 7 43 43
-3 34 -5 36 -48 43 -25 4 -51 15 -57 25 -9 11 -13 57 -13 140 l0 123 60 0 c60
0 60 0 60 29 0 38 -32 61 -82 61 l-38 0 0 43 c0 60 -21 87 -71 87 l-39 0 0
-65z"/>
<path d="M2244 716 c-17 -8 -43 -26 -57 -42 l-26 -28 -11 29 c-14 37 -26 45
-67 45 l-33 0 0 -203 c0 -185 2 -205 18 -220 10 -10 33 -17 50 -17 l32 0 0
125 c0 183 24 228 125 229 l55 1 0 48 c0 45 -1 47 -27 47 -16 -1 -42 -7 -59
-14z"/>
<path d="M2549 717 c-97 -36 -154 -119 -154 -222 1 -156 156 -261 316 -214 21
7 53 24 71 39 l33 28 -25 21 c-31 25 -38 26 -75 1 -39 -26 -139 -28 -174 -4
-21 15 -51 69 -51 93 0 7 65 12 173 13 l172 3 -1 56 c-2 113 -77 191 -188 196
-34 2 -77 -3 -97 -10z m124 -70 c40 -17 55 -35 63 -75 l7 -32 -122 0 c-116 0
-121 1 -121 21 0 31 18 58 53 79 38 23 75 25 120 7z"/>
<path d="M3099 717 c-97 -36 -154 -119 -154 -222 1 -156 156 -261 316 -214 21
7 53 24 71 39 l33 28 -25 21 c-31 25 -38 26 -75 1 -39 -26 -139 -28 -174 -4
-21 15 -51 69 -51 93 0 7 65 12 173 13 l172 3 -1 56 c-2 113 -77 191 -188 196
-34 2 -77 -3 -97 -10z m124 -70 c40 -17 55 -35 63 -75 l7 -32 -122 0 c-116 0
-121 1 -121 21 0 31 18 58 53 79 38 23 75 25 120 7z"/>
<path d="M3695 721 c-11 -5 -33 -23 -49 -40 l-29 -30 -16 32 c-13 26 -23 33
-53 35 l-38 3 0 -204 c0 -185 2 -205 18 -220 10 -10 33 -17 50 -17 l32 0 0
128 c0 142 10 194 43 217 26 18 107 20 131 2 25 -18 35 -77 36 -208 0 -76 4
-119 12 -127 7 -7 29 -12 50 -12 l38 0 0 146 c0 173 -10 220 -56 265 -29 28
-42 33 -91 36 -32 1 -67 -1 -78 -6z"/>
<path d="M4710 518 c0 -242 2 -248 73 -248 l37 0 0 208 c0 154 -3 213 -13 226
-7 9 -32 20 -55 23 l-42 6 0 -215z"/>
<path d="M5280 726 c0 -3 43 -106 95 -230 52 -124 95 -230 95 -236 0 -21 -49
-108 -65 -114 -9 -3 -32 -6 -50 -6 -57 0 -93 -80 -42 -94 79 -21 170 11 204
72 30 52 223 549 223 572 0 24 -32 42 -67 38 -24 -3 -30 -15 -81 -156 -30 -84
-59 -151 -64 -150 -6 2 -34 64 -64 138 -30 74 -63 143 -75 153 -19 15 -109 26
-109 13z"/>
</g>
</svg>
